<?xml version="1.0" standalone="no"?><!DOCTYPE svg PUBLIC "-//W3C//DTD SVG 1.1//EN" "http://www.w3.org/Graphics/SVG/1.1/DTD/svg11.dtd"><svg t="1682339743746" class="icon" viewBox="0 0 1126 1024" version="1.1" xmlns="http://www.w3.org/2000/svg" p-id="4289" xmlns:xlink="http://www.w3.org/1999/xlink" width="35.1875" height="32"><path d="M518.997281 44.336934A41.550405 41.550405 0 0 1 530.489946 13.395143a42.434456 42.434456 0 0 1 61.883581 0L1113.079663 530.565074a43.318507 43.318507 0 0 1-61.883581 61.883582L530.489946 75.278725A41.550405 41.550405 0 0 1 518.997281 44.336934z" fill="#409eff" p-id="4290"></path><path d="M0.059247 563.274968A41.550405 41.550405 0 0 1 13.320014 530.565074L530.489946 13.395143a42.434456 42.434456 0 0 1 61.883581 0 42.434456 42.434456 0 0 1 0 61.883582L75.203596 594.216758a42.434456 42.434456 0 0 1-61.883582 0A41.550405 41.550405 0 0 1 0.059247 563.274968zM518.997281 460.725032A45.086609 45.086609 0 0 1 530.489946 428.899191a44.202558 44.202558 0 0 1 61.883581 0l518.938034 518.938033a44.202558 44.202558 0 0 1 0 62.767633 42.434456 42.434456 0 0 1-61.883582 0L530.489946 491.666823a43.318507 43.318507 0 0 1-11.492665-30.941791z" fill="#409eff" p-id="4291"></path><path d="M0.059247 979.663066a45.086609 45.086609 0 0 1 13.260767-31.825842L530.489946 428.899191a44.202558 44.202558 0 0 1 61.883581 0 44.202558 44.202558 0 0 1 0 62.767632L75.203596 1010.604857a42.434456 42.434456 0 0 1-61.883582 0 43.318507 43.318507 0 0 1-13.260767-30.941791z" fill="#409eff" p-id="4292"></path></svg>