<?xml version="1.0" standalone="no"?><!DOCTYPE svg PUBLIC "-//W3C//DTD SVG 1.1//EN" "http://www.w3.org/Graphics/SVG/1.1/DTD/svg11.dtd"><svg t="1657612678330" class="icon" viewBox="0 0 1024 1024" version="1.1" xmlns="http://www.w3.org/2000/svg" p-id="4792" xmlns:xlink="http://www.w3.org/1999/xlink" width="128" height="128"><defs><style type="text/css">@font-face { font-family: feedback-iconfont; src: url("//at.alicdn.com/t/font_1031158_u69w8yhxdu.woff2?t=1630033759944") format("woff2"), url("//at.alicdn.com/t/font_1031158_u69w8yhxdu.woff?t=1630033759944") format("woff"), url("//at.alicdn.com/t/font_1031158_u69w8yhxdu.ttf?t=1630033759944") format("truetype"); }
</style></defs><path d="M777.9 650c0-1.9 0.2-3.8 0.2-5.6s-0.2-3.6-0.2-5.6V551c0.1-1.6 0.3-3.5 0.3-5.2 0-1.8-0.2-3.6-0.2-5.6V452c0-2 0.5-3.8 0.5-5.6 0-15.5-5-38.8-29.5-61.5-14.9-13.8-35.2-25.8-60.6-35.7-8.2-3.2-16.8-6.1-25.8-8.8-0.8 1-1.7 1.9-2.6 2.8l-57 56.9c21 3.8 40.3 9 57.1 15.4 35.8 13.6 45.4 27.2 46.4 30.5h-0.5v1.2c0 1.3-1.8 3.7-5 6.8-6.1 6-18.2 14.7-40.9 23.3-22.6 8.6-49.5 14.9-78.9 18.8-21.7 2.8-44.8 4.3-68.6 4.3s-46.9-1.5-68.6-4.3c-29.5-3.9-56.4-10.2-79-18.8-22.7-8.6-34.9-17.3-41-23.3-4-3.9-5.4-6.7-5.5-7.6 0.1-2.2 8.9-16.6 46.4-30.9 16.8-6.4 36-11.5 56.9-15.3l-57.1-57c-0.9-0.9-1.7-1.8-2.5-2.7-8.9 2.7-17.4 5.6-25.4 8.7-25.3 9.9-45.7 21.9-60.6 35.7-24.5 22.7-29.9 45.9-29.9 61.5 0 0.8-0.2 1.5-0.2 2.3v299h0.6c0.9 15.4 7.2 36.5 29.5 57.2 14.9 13.8 35.3 25.8 60.6 35.7 47.5 18.6 110 28.8 175.8 28.8s128.3-10.2 175.8-28.8c25.3-9.9 45.7-21.9 60.6-35.7 24.5-22.7 29.4-45.9 29.4-61.5 0-1.8-0.5-3.6-0.5-5.6V650zM706 744.5c-1 3.8-11.5 17-46 30.1-39.2 14.9-91.5 23.1-147.5 23.1s-108.6-8.2-147.8-23.1C328.2 760.8 319 746.8 318 744v-0.5c1-1 1.9-3.6 5.4-7.1 4.2 1.9 8.7 3.7 13.2 5.5 47.5 18.6 110.1 28.8 175.9 28.8s128.3-10.2 175.9-28.8c4.5-1.8 8.6-3.6 12.8-5.5 3 3 4.8 5.3 4.8 6.6v1.5z m0-99c-1 3.8-11.5 17-46 30.1-39.2 14.9-91.5 23.1-147.5 23.1s-108.6-8.2-147.8-23.1C328.2 661.8 319 647.8 318 645v-0.5c1-1 1.9-3.6 5.4-7.1 4.2 1.9 8.7 3.7 13.2 5.5 47.5 18.6 110.1 28.8 175.9 28.8s128.3-10.2 175.9-28.8c4.5-1.8 8.6-3.6 12.8-5.5 3 3 4.8 5.3 4.8 6.6v1.5z m-45.8-68.8c-39.2 14.9-91.6 23.1-147.6 23.1-52.5 0-101.8-7.2-140.1-20.4-2.7-0.9-5.3-1.8-7.8-2.8-36.5-13.8-45.7-27.8-46.7-30.6v-0.5c1-1.1 2-3.7 5.7-7.3-1-0.4-1.8-0.9-2.8-1.3 1 0.4 2 0.9 2.9 1.3 0 0 0.1 0 0.1 0.1l0.1-0.1c4.1 1.9 8.4 3.7 12.8 5.4 47.5 18.6 110 28.8 175.8 28.8s128.3-10.2 175.8-28.8c2.2-0.9 4.4-1.7 6.5-2.6 2.1-0.9 4.1-1.8 6.1-2.7l-0.1-0.1c1-0.4 2.2-0.9 3.1-1.3-0.9 0.4-1.8 0.9-2.8 1.3 4 3.9 5.4 6.7 5.5 7.6-0.2 2.3-8.9 16.6-46.5 30.9z" p-id="4793" fill="#35A4FB"></path><path d="M704 536.9c-0.9 0.4-2.1 0.9-3.1 1.3l0.1 0.1c0.1 0 0.1-0.1 0.2-0.1 1-0.4 1.9-0.9 2.8-1.3z" p-id="4794" fill="#35A4FB"></path><path d="M701.2 538.2c-0.1 0-0.1 0.1-0.2 0.1 3.1 3.1 4.9 5.4 4.9 6.7v1.5h0.1c-1 3.8-11.5 17-46 30.1-39.2 14.9-91.5 23.1-147.5 23.1-52.4 0-101.8-7.2-140-20.3 38.3 13.2 87.6 20.4 140.1 20.4 56 0 108.4-8.2 147.6-23.1 37.6-14.3 46.3-28.6 46.5-30.9-0.1-0.9-1.5-3.7-5.5-7.6z" p-id="4795" fill="#35A4FB"></path><path d="M688.4 543.6c2.2-0.9 4.4-1.7 6.5-2.6-2.1 0.9-4.3 1.8-6.5 2.6zM637.2 286.8c-14.1-14.1-37.4-14.1-51.4 0L548 324V203c0-19.9-16.1-36-36-36s-36 16.1-36 36v122.3l-38-38.5c-14.1-14.1-36.6-14.1-50.7 0s-13.9 36.9 0.1 50.9l95.2 95.1c1.1 1.6 2.5 3.1 3.9 4.6 7 7 16.3 10.5 25.5 10.5h0.8c9.2 0 18.4-3.5 25.5-10.5 1.4-1.4 2.7-3 3.8-4.5l95.2-95.2c14-14.1 14-36.9-0.1-50.9z" p-id="4796" fill="#35A4FB"></path></svg>