<?xml version="1.0" standalone="no"?><!DOCTYPE svg PUBLIC "-//W3C//DTD SVG 1.1//EN" "http://www.w3.org/Graphics/SVG/1.1/DTD/svg11.dtd"><svg t="1657613450362" class="icon" viewBox="0 0 1024 1024" version="1.1" xmlns="http://www.w3.org/2000/svg" p-id="18125" xmlns:xlink="http://www.w3.org/1999/xlink" width="128" height="128"><defs><style type="text/css">@font-face { font-family: feedback-iconfont; src: url("//at.alicdn.com/t/font_1031158_u69w8yhxdu.woff2?t=1630033759944") format("woff2"), url("//at.alicdn.com/t/font_1031158_u69w8yhxdu.woff?t=1630033759944") format("woff"), url("//at.alicdn.com/t/font_1031158_u69w8yhxdu.ttf?t=1630033759944") format("truetype"); }
</style></defs><path d="M460.89 228.8m-34.91 0a34.91 34.91 0 1 0 69.82 0 34.91 34.91 0 1 0-69.82 0Z" fill="#35A4FB" p-id="18126"></path><path d="M776.34 534.37m-31.18 0a31.18 31.18 0 1 0 62.36 0 31.18 31.18 0 1 0-62.36 0Z" fill="#35A4FB" p-id="18127"></path><path d="M308.68 335.69m-42.27 0a42.27 42.27 0 1 0 84.54 0 42.27 42.27 0 1 0-84.54 0Z" fill="#35A4FB" p-id="18128"></path><path d="M253.75 472.93m-26.03 0a26.03 26.03 0 1 0 52.06 0 26.03 26.03 0 1 0-52.06 0Z" fill="#35A4FB" p-id="18129"></path><path d="M611.44 284.99m-21.27 0a21.27 21.27 0 1 0 42.54 0 21.27 21.27 0 1 0-42.54 0Z" fill="#35A4FB" p-id="18130"></path><path d="M469.53 787.41m-31.36 0a31.36 31.36 0 1 0 62.72 0 31.36 31.36 0 1 0-62.72 0Z" fill="#35A4FB" p-id="18131"></path><path d="M562.18 744.26m-25.34 0a25.34 25.34 0 1 0 50.68 0 25.34 25.34 0 1 0-50.68 0Z" fill="#35A4FB" p-id="18132"></path><path d="M239.07 599.82m-40.71 0a40.71 40.71 0 1 0 81.42 0 40.71 40.71 0 1 0-81.42 0Z" fill="#35A4FB" p-id="18133"></path><path d="M338.89 696.81m-29.22 0a29.22 29.22 0 1 0 58.44 0 29.22 29.22 0 1 0-58.44 0Z" fill="#35A4FB" p-id="18134"></path><path d="M700.72 718.06m-37.99 0a37.99 37.99 0 1 0 75.98 0 37.99 37.99 0 1 0-75.98 0Z" fill="#35A4FB" p-id="18135"></path><path d="M759.81 377.96m-36.91 0a36.91 36.91 0 1 0 73.82 0 36.91 36.91 0 1 0-73.82 0Z" fill="#35A4FB" p-id="18136"></path><path d="M317.366 700.639l65.01-70.506 22.586 20.825-65.011 70.506zM454.32 783.298l15.415-100.906 30.367 4.639-15.414 100.906zM611.798 644.521l22.554-20.855 77.632 83.955-22.554 20.856zM532.93 683.128l29.998-6.617 14.216 64.449-29.998 6.617zM654.465 415.87l121.972-67.788 14.924 26.853-121.972 67.788zM680.073 543.597l2.731-30.598 94.909 8.472-2.731 30.597zM445.726 216.865l30.293-5.1 21.517 127.819-30.293 5.1zM566.634 348.745l30.747-69.928 28.12 12.365-30.746 69.928zM251.386 488.084l4.73-30.354L341.262 471l-4.73 30.355zM291.683 338.12l20.434-22.939 80.57 71.775-20.436 22.939zM208.207 597.764l133.453-44.466 9.71 29.144-133.453 44.466z" fill="#35A4FB" p-id="18137"></path><path d="M511.17 717.29c-112.61 0-204.23-91.62-204.23-204.23 0-112.61 91.62-204.23 204.23-204.23S715.4 400.45 715.4 513.06c0 112.61-91.62 204.23-204.23 204.23z m0-367.5c-90.03 0-163.27 73.24-163.27 163.27s73.24 163.27 163.27 163.27c90.03 0 163.27-73.24 163.27-163.27S601.2 349.79 511.17 349.79z" fill="#35A4FB" p-id="18138"></path><path d="M511.17 329.31c-101.48 0-183.75 82.27-183.75 183.75s82.27 183.75 183.75 183.75 183.75-82.27 183.75-183.75-82.27-183.75-183.75-183.75z m-74.82 280.36c-14.28 0-25.86-11.58-25.86-25.86s11.58-25.86 25.86-25.86 25.86 11.58 25.86 25.86-11.58 25.86-25.86 25.86z m36.59-108.92c-32.64 0-59.1-26.46-59.1-59.1s26.46-59.1 59.1-59.1 59.1 26.46 59.1 59.1c0 32.65-26.46 59.1-59.1 59.1z m116.14 86.88c-18.78 0-34.01-15.23-34.01-34.01 0-18.78 15.23-34.01 34.01-34.01s34.01 15.23 34.01 34.01c0 18.79-15.23 34.01-34.01 34.01z" fill="#35A4FB" p-id="18139"></path></svg>